<svg width="33" height="33" fill="none" xmlns="http://www.w3.org/2000/svg"><circle cx="16.05" cy="16.05" r="16.05" fill="color(display-p3 .5686 .6 .6314)"/><path fill="color(display-p3 .5686 .6 .6314)" d="M9.362 9.363h13.375v13.375H9.362z"/><path d="M17.164 16.05l-1.95 1.115v-2.23l1.95 1.115z" fill="#fff" stroke="#fff" stroke-width=".738" stroke-linecap="round" stroke-linejoin="round"/><path d="M10.477 16.444v-.788c0-1.614 0-2.42.504-2.94.505-.519 1.3-.541 2.888-.586a80.32 80.32 0 012.18-.037c.659 0 1.428.015 2.18.037 1.59.045 2.384.067 2.889.586.504.52.504 1.326.504 2.94v.788c0 1.614 0 2.42-.504 2.94-.505.519-1.3.541-2.888.586-.753.022-1.522.037-2.18.037-.659 0-1.428-.015-2.18-.037-1.59-.045-2.384-.067-2.889-.586-.504-.52-.504-1.326-.504-2.94z" stroke="#fff" stroke-width=".738"/></svg>