<svg width="33" height="33" viewBox="0 0 33 33" fill="none" xmlns="http://www.w3.org/2000/svg">
<g id="Group 167">
<circle id="Ellipse 11" cx="16.05" cy="16.0501" r="16.05" fill="#9199A1" style="fill:#9199A1;fill:color(display-p3 0.5686 0.6000 0.6314);fill-opacity:1;"/>
<g id="Frame">
<rect width="13.375" height="13.375" transform="translate(9.3623 9.36267)" fill="#9199A1" style="fill:#9199A1;fill:color(display-p3 0.5686 0.6000 0.6314);fill-opacity:1;"/>
<path id="Vector" d="M17.1644 16.05L15.2139 17.1646V14.9354L17.1644 16.05Z" fill="white" stroke="white" style="fill:white;fill-opacity:1;stroke:white;stroke-opacity:1;" stroke-width="0.738239" stroke-linecap="round" stroke-linejoin="round"/>
<path id="Vector_2" d="M10.4766 16.4444V15.6557C10.4766 14.0422 10.4766 13.2354 10.9812 12.7163C11.4858 12.1972 12.2803 12.1748 13.8692 12.1298C14.6221 12.1085 15.3912 12.0933 16.0495 12.0933C16.7078 12.0933 17.4769 12.1085 18.2298 12.1298C19.8187 12.1748 20.6131 12.1972 21.1178 12.7163C21.6224 13.2354 21.6224 14.0422 21.6224 15.6557V16.4444C21.6224 18.0579 21.6224 18.8647 21.1178 19.3838C20.6131 19.9029 19.8187 19.9253 18.2298 19.9703C17.4769 19.9916 16.7078 20.0069 16.0495 20.0069C15.3912 20.0069 14.6221 19.9916 13.8691 19.9703C12.2802 19.9253 11.4858 19.9029 10.9812 19.3838C10.4766 18.8647 10.4766 18.0579 10.4766 16.4444Z" stroke="white" style="stroke:white;stroke-opacity:1;" stroke-width="0.738239"/>
</g>
</g>
</svg>
