<?xml version="1.0" encoding="UTF-8"?>
<svg xmlns="http://www.w3.org/2000/svg" xmlns:xlink="http://www.w3.org/1999/xlink" width="0" height="0">
<symbol id="facebook" width="33" height="33" viewBox="0 0 33 33" fill="none">
<circle cx="16.9494" cy="16.0501" r="16.05" style="fill:#9199A1;fill:color(display-p3 0.5686 0.6000 0.6314);fill-opacity:1;"/>
<rect width="13.375" height="13.375" transform="translate(10.2617 9.36267)" style="fill:#9199A1;fill:color(display-p3 0.5686 0.6000 0.6314);fill-opacity:1;"/>
<path d="M21.9648 13.821V18.2793C21.9648 19.8182 20.7173 21.0658 19.1784 21.0658H14.7201C13.1811 21.0658 11.9336 19.8182 11.9336 18.2793V13.821C11.9336 12.2821 13.1811 11.0345 14.7201 11.0345H19.1784C20.7173 11.0345 21.9648 12.2821 21.9648 13.821Z" style="stroke:white;stroke-opacity:1;" stroke-width="0.738239" stroke-linecap="round" stroke-linejoin="round"/>
<path d="M16.3916 21.0658C16.3916 19.394 16.3916 17.7221 16.3916 16.0502C16.3916 14.8311 16.6702 13.821 18.6208 13.821" style="stroke:white;stroke-opacity:1;" stroke-width="0.738239" stroke-linecap="round" stroke-linejoin="round"/>
<path d="M15.2773 16.6073H16.3919H18.6211" style="stroke:white;stroke-opacity:1;" stroke-width="0.738239" stroke-linecap="round" stroke-linejoin="round"/>
</symbol>

<symbol id="instagtam" width="33" height="33" viewBox="0 0 33 33" fill="none">
<circle cx="16.5002" cy="16.0501" r="16.05" style="fill:#9199A1;fill:color(display-p3 0.5686 0.6000 0.6314);fill-opacity:1;"/>
<rect width="13.375" height="13.375" transform="translate(9.8125 9.36267)" style="fill:#9199A1;fill:color(display-p3 0.5686 0.6000 0.6314);fill-opacity:1;"/>
<path d="M16.4997 18.2794C17.7308 18.2794 18.7288 17.2813 18.7288 16.0502C18.7288 14.8191 17.7308 13.821 16.4997 13.821C15.2685 13.821 14.2705 14.8191 14.2705 16.0502C14.2705 17.2813 15.2685 18.2794 16.4997 18.2794Z" style="stroke:white;stroke-opacity:1;" stroke-width="0.738239" stroke-linecap="round" stroke-linejoin="round"/>
<path d="M11.4844 18.2793V13.821C11.4844 12.2821 12.7319 11.0345 14.2708 11.0345H18.7292C20.2681 11.0345 21.5156 12.2821 21.5156 13.821V18.2793C21.5156 19.8182 20.2681 21.0658 18.7292 21.0658H14.2708C12.7319 21.0658 11.4844 19.8182 11.4844 18.2793Z" style="stroke:white;stroke-opacity:1;" stroke-width="0.738239"/>
<path d="M19.5645 12.9925L19.5717 12.9844" style="stroke:white;stroke-opacity:1;" stroke-width="0.738239" stroke-linecap="round" stroke-linejoin="round"/>
</symbol>

<symbol id="youtube" width="33" height="33" viewBox="0 0 33 33" fill="none">
<g>
<circle id="Ellipse 11" cx="16.05" cy="16.0501" r="16.05" style="fill:#9199A1;fill:color(display-p3 0.5686 0.6000 0.6314);fill-opacity:1;"/>
<g id="Frame">
<rect width="13.375" height="13.375" transform="translate(9.3623 9.36267)" style="fill:#9199A1;fill:color(display-p3 0.5686 0.6000 0.6314);fill-opacity:1;"/>
<path id="Vector" d="M17.1644 16.05L15.2139 17.1646V14.9354L17.1644 16.05Z" style="fill:white;fill-opacity:1;stroke:white;stroke-opacity:1;" stroke-width="0.738239" stroke-linecap="round" stroke-linejoin="round"/>
<path id="Vector_2" d="M10.4766 16.4444V15.6557C10.4766 14.0422 10.4766 13.2354 10.9812 12.7163C11.4858 12.1972 12.2803 12.1748 13.8692 12.1298C14.6221 12.1085 15.3912 12.0933 16.0495 12.0933C16.7078 12.0933 17.4769 12.1085 18.2298 12.1298C19.8187 12.1748 20.6131 12.1972 21.1178 12.7163C21.6224 13.2354 21.6224 14.0422 21.6224 15.6557V16.4444C21.6224 18.0579 21.6224 18.8647 21.1178 19.3838C20.6131 19.9029 19.8187 19.9253 18.2298 19.9703C17.4769 19.9916 16.7078 20.0069 16.0495 20.0069C15.3912 20.0069 14.6221 19.9916 13.8691 19.9703C12.2802 19.9253 11.4858 19.9029 10.9812 19.3838C10.4766 18.8647 10.4766 18.0579 10.4766 16.4444Z" style="stroke:white;stroke-opacity:1;" stroke-width="0.738239"/>
</g>
</g>
</symbol>

</svg>
