<svg width="33" height="33" viewBox="0 0 33 33" fill="none" xmlns="http://www.w3.org/2000/svg">
<circle cx="16.5002" cy="16.0501" r="16.05" fill="#9199A1" style="fill:#9199A1;fill:color(display-p3 0.5686 0.6000 0.6314);fill-opacity:1;"/>
<rect width="13.375" height="13.375" transform="translate(9.8125 9.36267)" fill="#9199A1" style="fill:#9199A1;fill:color(display-p3 0.5686 0.6000 0.6314);fill-opacity:1;"/>
<path d="M16.4997 18.2794C17.7308 18.2794 18.7288 17.2813 18.7288 16.0502C18.7288 14.8191 17.7308 13.821 16.4997 13.821C15.2685 13.821 14.2705 14.8191 14.2705 16.0502C14.2705 17.2813 15.2685 18.2794 16.4997 18.2794Z" stroke="white" style="stroke:white;stroke-opacity:1;" stroke-width="0.738239" stroke-linecap="round" stroke-linejoin="round"/>
<path d="M11.4844 18.2793V13.821C11.4844 12.2821 12.7319 11.0345 14.2708 11.0345H18.7292C20.2681 11.0345 21.5156 12.2821 21.5156 13.821V18.2793C21.5156 19.8182 20.2681 21.0658 18.7292 21.0658H14.2708C12.7319 21.0658 11.4844 19.8182 11.4844 18.2793Z" stroke="white" style="stroke:white;stroke-opacity:1;" stroke-width="0.738239"/>
<path d="M19.5645 12.9925L19.5717 12.9844" stroke="white" style="stroke:white;stroke-opacity:1;" stroke-width="0.738239" stroke-linecap="round" stroke-linejoin="round"/>
</svg>
